<?xml version="1.0" encoding="UTF-8"?>
<svg id="Calque_2" data-name="Calque 2" xmlns="http://www.w3.org/2000/svg" viewBox="0 0 85 90">
  <defs>
    <style>
      .cls-1 {
        fill: #000;
        stroke-width: 0px;
      }
    </style>
  </defs>
  <g id="Calque_1-2" data-name="Calque 1">
    <path class="cls-1" d="M84.99,27.44c0-.21-.03-.41-.09-.61,0-.03-.02-.06-.03-.08-.04-.12-.08-.24-.14-.36-.02-.04-.05-.08-.07-.12-.03-.05-.06-.1-.1-.16-.09-.14-.2-.26-.31-.38-.03-.03-.06-.06-.09-.09-.15-.14-.32-.25-.51-.35-.01,0-.03-.02-.04-.03L33.62.26c-.7-.35-1.53-.35-2.24,0l-15,7.5s-.02.02-.04.03c-.18.1-.35.21-.51.35-.03.03-.06.06-.08.09-.12.11-.22.24-.31.38-.03.05-.07.1-.1.15-.02.04-.05.08-.08.12-.06.12-.1.24-.14.36,0,.03-.02.06-.03.09-.06.2-.08.41-.09.61,0,.02,0,.04,0,.06v18.46l-13.62,6.81s-.02.02-.04.03c-.18.1-.35.21-.51.35-.03.03-.06.06-.09.09-.12.12-.22.24-.31.38-.03.05-.07.1-.1.16-.02.04-.05.08-.07.12-.06.12-.1.24-.14.36,0,.03-.02.06-.03.08-.06.2-.08.41-.09.62,0,.02,0,.04,0,.06v10s.01.06.01.09c0,.17.03.34.07.51.01.04.02.09.03.13.06.19.14.38.24.55.02.03.05.06.07.1.09.14.2.27.32.39.04.04.07.07.11.11.16.14.32.26.52.36l3.62,1.81v10.96c0,.95.53,1.81,1.38,2.24l50,25s.04.01.06.02c.12.06.25.1.38.14.05.01.09.03.14.04.18.04.36.06.54.06s.37-.02.54-.06c.05-.01.09-.03.14-.04.13-.04.26-.08.38-.14.02,0,.04-.01.06-.02l25-12.5c.85-.42,1.38-1.29,1.38-2.24V27.5s0-.04,0-.06ZM32.5,5.3l44.41,22.2-9.41,4.71L23.09,10l9.41-4.7ZM20,14.05l45,22.5v14.41L20,28.46v-14.41ZM17.5,32.8l3.16,1.58-1.78.89c-1.24.62-1.74,2.12-1.12,3.35.44.88,1.32,1.38,2.24,1.38.38,0,.76-.08,1.12-.26l5-2.5s.08-.05.12-.07l4.43,2.21-1.78.89c-1.24.62-1.74,2.12-1.12,3.35.44.88,1.32,1.38,2.24,1.38.38,0,.76-.08,1.12-.26l5-2.5s.08-.05.12-.07l4.43,2.21-1.78.89c-1.24.62-1.74,2.12-1.12,3.35.44.88,1.32,1.38,2.24,1.38.38,0,.76-.08,1.12-.26l5-2.5s.08-.05.12-.07l4.43,2.21-1.78.89c-1.24.62-1.74,2.12-1.12,3.35.44.88,1.32,1.38,2.24,1.38.38,0,.76-.08,1.12-.26l5-2.5s.08-.05.12-.07l5.68,2.84-9.41,4.71L8.09,37.5l9.41-4.71ZM5,45.96v-4.41l45,22.5v4.41L8.62,47.76l-3.62-1.81ZM55,83.46L10,60.96v-6.91l41.38,20.69c.7.35,1.53.35,2.24,0l1.38-.69v9.41ZM80,73.46l-20,10v-13.46c0-.87-.45-1.67-1.19-2.13-.74-.46-1.66-.5-2.43-.11l-1.38.69v-4.41l13.62-6.81s.08-.05.12-.08c.03-.01.05-.02.08-.03.03-.02.05-.05.08-.07.12-.08.23-.17.33-.27.04-.04.08-.07.11-.11.13-.14.25-.29.34-.46,0,0,0-.02.01-.03.09-.16.15-.33.2-.5.02-.06.03-.11.04-.17.03-.14.05-.28.06-.42,0-.03.01-.07.01-.1v-18.46l10-5v41.91Z"/>
  </g>
</svg>