<?xml version="1.0" encoding="UTF-8"?>
<svg id="Calque_2" data-name="Calque 2" xmlns="http://www.w3.org/2000/svg" viewBox="0 0 19.5 19.5">
  <defs>
    <style>
      .cls-1 {
        fill: none;
        stroke: #000;
        stroke-linecap: round;
        stroke-linejoin: round;
        stroke-width: 1.5px;
      }
    </style>
  </defs>
  <g id="Calque_1-2" data-name="Calque 1">
    <path class="cls-1" d="M18.25,6.89c.65.66.68,1.44.07,2.11-.36.4-.74.78-1.14,1.14-.6.54-1.52.52-2.1-.05-1.9-1.89-3.79-3.78-5.68-5.68-.58-.58-.58-1.51-.02-2.1.37-.38.74-.76,1.13-1.13.62-.58,1.44-.57,2.05.02.32.31,5.39,5.38,5.69,5.68Z"/>
    <path class="cls-1" d="M6.89,18.24c.66.65,1.44.68,2.11.07.4-.36.78-.74,1.14-1.14.54-.6.52-1.52-.05-2.1-1.89-1.9-3.78-3.79-5.68-5.68-.58-.58-1.51-.58-2.1-.02-.38.37-.76.74-1.13,1.13-.58.62-.57,1.44.02,2.05l5.68,5.69Z"/>
    <path class="cls-1" d="M1.08,15.91l2.52,2.52"/>
    <path class="cls-1" d="M15.91,1.08l2.52,2.52"/>
    <path class="cls-1" d="M13.45,8.62c-1.61,1.61-3.22,3.22-4.86,4.86M8.62,13.45c1.61-1.61,3.22-3.22,4.86-4.86"/>
    <path class="cls-1" d="M6.02,10.92c1.62-1.62,3.23-3.23,4.86-4.86M10.91,6.02c-1.62,1.62-3.23,3.23-4.86,4.86"/>
  </g>
</svg>