<svg width="24" height="24" viewBox="0 0 24 24" fill="none" xmlns="http://www.w3.org/2000/svg">
<path d="M8.25368 3.35999H15.3301C18.0155 3.35999 19.6855 5.25518 19.6855 7.93778V16.0622C19.6855 18.7448 18.0155 20.64 15.3292 20.64H8.25368C5.56922 20.64 3.89819 18.7448 3.89819 16.0622V7.93778C3.89819 5.25518 5.57669 3.35999 8.25368 3.35999Z" stroke="black" stroke-width="1.44" stroke-linecap="round" stroke-linejoin="round"/>
<path d="M7.60923 13.4701V13.4797M7.60923 17.0701V17.0797M11.6892 13.4701V13.4797M11.6892 17.0701V17.0797M15.7692 13.4701V13.4797M15.7692 17.0701V17.0797M7.63365 13.3726C7.65737 13.3727 7.68052 13.3798 7.70019 13.393C7.71986 13.4063 7.73518 13.425 7.74419 13.447C7.75319 13.4689 7.75551 13.493 7.75082 13.5163C7.74615 13.5395 7.73468 13.5608 7.71788 13.5775C7.70108 13.5943 7.6797 13.6057 7.65643 13.6103C7.63317 13.6149 7.60906 13.6125 7.58716 13.6034C7.56527 13.5943 7.54654 13.5789 7.53338 13.5592C7.52021 13.5394 7.51319 13.5163 7.51319 13.4926C7.51311 13.4767 7.51617 13.4611 7.5222 13.4464C7.52823 13.4318 7.5371 13.4186 7.54831 13.4073C7.55952 13.3962 7.57284 13.3874 7.58749 13.3814C7.60214 13.3754 7.61783 13.3724 7.63365 13.3726ZM7.63365 16.9726C7.65737 16.9727 7.68052 16.9798 7.70019 16.993C7.71986 17.0063 7.73518 17.025 7.74419 17.047C7.75319 17.0689 7.75551 17.093 7.75082 17.1163C7.74615 17.1395 7.73468 17.1608 7.71788 17.1775C7.70108 17.1943 7.6797 17.2057 7.65643 17.2103C7.63317 17.2149 7.60906 17.2125 7.58716 17.2034C7.56527 17.1943 7.54654 17.1789 7.53338 17.1592C7.52021 17.1394 7.51319 17.1163 7.51319 17.0926C7.51311 17.0767 7.51617 17.0611 7.5222 17.0464C7.52823 17.0318 7.5371 17.0186 7.54831 17.0073C7.55952 16.9962 7.57284 16.9874 7.58749 16.9814C7.60214 16.9754 7.61783 16.9724 7.63365 16.9726ZM11.7137 13.3726C11.7374 13.3727 11.7605 13.3798 11.7802 13.393C11.7999 13.4063 11.8152 13.425 11.8242 13.447C11.8332 13.4689 11.8355 13.493 11.8308 13.5163C11.8261 13.5395 11.8147 13.5608 11.7979 13.5775C11.7811 13.5943 11.7597 13.6057 11.7364 13.6103C11.7132 13.6149 11.689 13.6125 11.6671 13.6034C11.6452 13.5943 11.6265 13.5789 11.6134 13.5592C11.6002 13.5394 11.5932 13.5163 11.5932 13.4926C11.5931 13.4767 11.5962 13.4611 11.6022 13.4464C11.6082 13.4318 11.6171 13.4186 11.6283 13.4073C11.6395 13.3962 11.6528 13.3874 11.6675 13.3814C11.6821 13.3754 11.6979 13.3724 11.7137 13.3726ZM11.7137 16.9726C11.7374 16.9727 11.7605 16.9798 11.7802 16.993C11.7999 17.0063 11.8152 17.025 11.8242 17.047C11.8332 17.0689 11.8355 17.093 11.8308 17.1163C11.8261 17.1395 11.8147 17.1608 11.7979 17.1775C11.7811 17.1943 11.7597 17.2057 11.7364 17.2103C11.7132 17.2149 11.689 17.2125 11.6671 17.2034C11.6452 17.1943 11.6265 17.1789 11.6134 17.1592C11.6002 17.1394 11.5932 17.1163 11.5932 17.0926C11.5931 17.0767 11.5962 17.0611 11.6022 17.0464C11.6082 17.0318 11.6171 17.0186 11.6283 17.0073C11.6395 16.9962 11.6528 16.9874 11.6675 16.9814C11.6821 16.9754 11.6979 16.9724 11.7137 16.9726ZM15.7937 13.3726C15.8174 13.3727 15.8405 13.3798 15.8602 13.393C15.8799 13.4063 15.8952 13.425 15.9042 13.447C15.9132 13.4689 15.9155 13.493 15.9108 13.5163C15.9061 13.5395 15.8947 13.5608 15.8779 13.5775C15.8611 13.5943 15.8397 13.6057 15.8164 13.6103C15.7932 13.6149 15.769 13.6125 15.7471 13.6034C15.7252 13.5943 15.7065 13.5789 15.6934 13.5592C15.6802 13.5394 15.6732 13.5163 15.6732 13.4926C15.6731 13.4767 15.6762 13.4611 15.6822 13.4464C15.6882 13.4318 15.6971 13.4186 15.7084 13.4073C15.7195 13.3962 15.7328 13.3874 15.7475 13.3814C15.7621 13.3754 15.7779 13.3724 15.7937 13.3726ZM15.7937 16.9726C15.8174 16.9727 15.8405 16.9798 15.8602 16.993C15.8799 17.0063 15.8952 17.025 15.9042 17.047C15.9132 17.0689 15.9155 17.093 15.9108 17.1163C15.9061 17.1395 15.8947 17.1608 15.8779 17.1775C15.8611 17.1943 15.8397 17.2057 15.8164 17.2103C15.7932 17.2149 15.769 17.2125 15.7471 17.2034C15.7252 17.1943 15.7065 17.1789 15.6934 17.1592C15.6802 17.1394 15.6732 17.1163 15.6732 17.0926C15.6731 17.0767 15.6762 17.0611 15.6822 17.0464C15.6882 17.0318 15.6971 17.0186 15.7084 17.0073C15.7195 16.9962 15.7328 16.9874 15.7475 16.9814C15.7621 16.9754 15.7779 16.9724 15.7937 16.9726Z" stroke="black" stroke-width="1.44" stroke-linecap="round" stroke-linejoin="round"/>
<path fill-rule="evenodd" clip-rule="evenodd" d="M14.8815 6.62256H8.70459C7.73971 6.62256 7.13818 7.16244 7.13818 8.15347V8.43182C7.13818 9.43873 7.73971 9.99076 8.70459 9.99076H14.8787C15.8464 9.99076 16.4451 9.449 16.4451 8.45704V8.15347C16.4479 7.16244 15.8492 6.62256 14.8815 6.62256Z" stroke="black" stroke-width="1.44" stroke-linecap="round" stroke-linejoin="round"/>
</svg>
