<svg width="24" height="24" viewBox="0 0 24 24" fill="none" xmlns="http://www.w3.org/2000/svg">
<path fill-rule="evenodd" clip-rule="evenodd" d="M6.30714 14.7808L6.56108 18.5442C6.636 19.6515 7.55643 20.5116 8.66659 20.5116H15.3354C16.4455 20.5116 17.3659 19.6515 17.4399 18.5442L17.6948 14.7808H17.6929C19.6057 14.2125 21 12.4417 21 10.3372C21 7.78116 18.9285 5.70094 16.3648 5.70094C16.1721 5.70094 15.9892 5.71846 15.7965 5.74278C15.0532 4.39813 13.6414 3.4884 11.9961 3.4884C10.3586 3.4884 8.94778 4.39813 8.19568 5.74278C8.01178 5.71846 7.82789 5.70094 7.63622 5.70094C5.07146 5.70094 3 7.78116 3 10.3372C3 12.4417 4.39427 14.2125 6.30714 14.7808Z" stroke="black" stroke-width="1.5" stroke-linecap="round" stroke-linejoin="round"/>
<path d="M6.47852 17.322H17.5227" stroke="black" stroke-width="1.5" stroke-linecap="round" stroke-linejoin="round"/>
</svg>
