<svg width="24" height="24" viewBox="0 0 24 24" fill="none" xmlns="http://www.w3.org/2000/svg">
<path d="M8.80875 9.74934C9.84403 13.613 10.0428 18.2185 9.68923 18.8309" stroke="black" stroke-width="1.5"/>
<path d="M13.6383 8.45525C14.6735 12.3189 16.8042 16.4068 17.4165 16.7603" stroke="black" stroke-width="1.5"/>
<circle cx="10.1883" cy="5.23854" r="3" transform="rotate(165 10.1883 5.23854)" stroke="#121212" stroke-width="1.5"/>
<rect x="6.13501" y="9.43042" width="10" height="1.5" rx="0.75" transform="rotate(-15 6.13501 9.43042)" fill="#121212"/>
<mask id="path-5-inside-1_7752_2795" fill="white">
<path d="M8.27499 21.2803C7.84617 19.6799 8.79591 18.0349 10.3963 17.6061L16.1919 16.0532C17.7923 15.6244 19.4373 16.5741 19.8661 18.1745L20.1249 19.1404C20.2679 19.6739 19.9513 20.2222 19.4178 20.3652L9.75856 22.9534C9.22509 23.0963 8.67675 22.7797 8.53381 22.2463L8.27499 21.2803Z"/>
</mask>
<path d="M8.27499 21.2803C7.84617 19.6799 8.79591 18.0349 10.3963 17.6061L16.1919 16.0532C17.7923 15.6244 19.4373 16.5741 19.8661 18.1745L20.1249 19.1404C20.2679 19.6739 19.9513 20.2222 19.4178 20.3652L9.75856 22.9534C9.22509 23.0963 8.67675 22.7797 8.53381 22.2463L8.27499 21.2803Z" stroke="#121212" stroke-width="3" mask="url(#path-5-inside-1_7752_2795)"/>
</svg>
