<?xml version="1.0" encoding="UTF-8"?>
<svg id="Calque_2" data-name="Calque 2" xmlns="http://www.w3.org/2000/svg" viewBox="0 0 21.97 21.97">
  <defs>
    <style>
      .cls-1 {
        fill: #000;
        stroke-width: 0px;
      }
    </style>
  </defs>
  <g id="Calque_1-2" data-name="Calque 1">
    <path class="cls-1" d="M21.95,12.67l-.37-1.5c-.18-.73-.87-1.42-1.6-1.6l-1.16-.29-.29-1.16c-.18-.74-.87-1.43-1.6-1.6l-1.17-.29-.29-1.16c-.18-.73-.87-1.43-1.6-1.61l-1.16-.29-.29-1.17c-.18-.73-.87-1.42-1.6-1.6L9.3.02c-.27-.06-.55.07-.66.32L2.87,13.02l-1.61,1.61c-.81.81-1.26,1.89-1.26,3.04s.45,2.23,1.26,3.03,1.89,1.26,3.04,1.26,2.23-.45,3.04-1.26l1.6-1.6,12.7-5.78c.25-.11.39-.39.32-.66ZM17.41,8.39l.28,1.12-7.69,5.61-1.17-1.17,6.63-6.62,1.19.29c.31.08.68.45.76.76ZM8.74,17.93l-.27-.27,1.41-1.03.54.54-1.68.76ZM7.64,16.84l-.85-.85,1.22-1.22,1.04,1.04-1.41,1.03ZM5.13,14.33l1.03-1.41,1.04,1.04-1.22,1.22-.85-.85ZM4.8,11.55l.54.54-1.03,1.41-.27-.27.76-1.68ZM14.35,5.33l.29,1.19-6.63,6.63-1.17-1.17,5.61-7.69,1.12.28c.32.08.69.45.77.77ZM9.48,1.25l1.04.26c.31.08.69.45.77.76l.31,1.24-5.58,7.64-.72-.72L9.48,1.25ZM6.51,19.9c-.59.59-1.38.92-2.22.92s-1.63-.33-2.22-.92c-.6-.59-.92-1.39-.92-2.23s.33-1.63.92-2.22l1.28-1.28,4.45,4.44-1.28,1.28ZM11.53,16.66l-.72-.72,7.64-5.57,1.24.31c.32.08.69.45.77.77l.26,1.04-9.19,4.18Z"/>
  </g>
</svg>