<?xml version="1.0" encoding="UTF-8"?>
<svg id="Calque_2" data-name="Calque 2" xmlns="http://www.w3.org/2000/svg" viewBox="0 0 90 90">
  <defs>
    <style>
      .cls-1 {
        fill: #000;
        stroke-width: 0px;
      }
    </style>
  </defs>
  <g id="Calque_1-2" data-name="Calque 1">
    <g>
      <path class="cls-1" d="M79,0H11C4.9,0,0,4.6,0,10.3v51.7c0,5.7,4.9,10.3,11,10.3h7.2v15.3c0,.9.6,1.8,1.5,2.2.4.2.7.2,1.1.2.6,0,1.2-.2,1.7-.5l22.7-17.2h33.8c6.1,0,11-4.6,11-10.3V10.3c0-5.7-4.9-10.3-11-10.3ZM84.9,61.9c0,3-2.6,5.4-5.8,5.4h-34.9c-.6,0-1.2.2-1.7.5l-19.1,14.5v-12.6c0-1.3-1.2-2.4-2.6-2.4h-9.8c-3.2,0-5.8-2.4-5.8-5.4V10.5c0-3,2.6-5.4,5.8-5.4h68.2c3.2,0,5.8,2.4,5.8,5.4v51.4h-.1Z"/>
      <polygon class="cls-1" points="26 37.7 40.2 37.7 40.2 32.7 26 32.7 26 26.5 41.4 26.5 41.4 21.3 20 21.3 20 50.5 42.1 50.5 42.1 45.2 26 45.2 26 37.7"/>
      <polygon class="cls-1" points="64.8 41.7 53.2 21.3 46.8 21.3 46.8 50.5 52.5 50.5 52.5 29.8 64.4 50.5 70.5 50.5 70.5 21.3 64.8 21.3 64.8 41.7"/>
    </g>
  </g>
</svg>